<svg width="48" height="48" viewBox="0 0 48 48" fill="none" xmlns="http://www.w3.org/2000/svg">
<g clip-path="url(#clip0)">
<path d="M22.2503 25.2225C23.0028 25.7663 23.9282 26.087 24.9287 26.087H33.4875V30.237L38.9128 26.087H41.2533C43.7764 26.087 45.8218 24.0479 45.8218 21.5325V5.25769C45.8218 2.74229 43.7764 0.703217 41.2533 0.703217H24.9287C22.4056 0.703217 20.3603 2.74229 20.3603 5.25769V25.2225H22.2503Z" fill="#F7F3F1"/>
<path d="M41.2534 0.703217H37.3404C39.8635 0.703217 41.9089 2.74239 41.9089 5.25769V21.5325C41.9089 24.0479 39.8635 26.087 37.3404 26.087H34.9999L33.4875 27.2438V30.237L38.9128 26.087H41.2534C43.7764 26.087 45.8218 24.0479 45.8218 21.5325V5.25769C45.8219 2.74239 43.7765 0.703217 41.2534 0.703217V0.703217Z" fill="#EBE1DC"/>
<path d="M29.5708 19.4112L30.0416 19.7924C30.7882 20.3967 31.7196 20.7264 32.68 20.7264H39.3646C39.9983 20.7264 40.5085 20.1978 40.4783 19.5575C40.4501 18.9578 40.4797 13.4961 40.4797 12.8804C40.4797 12.2646 39.9805 11.7653 39.3646 11.7653L34.8318 11.7517L35.3868 10.4373C35.9634 9.07152 35.8702 7.51486 35.1347 6.22767C34.9267 5.86368 34.4587 5.74423 34.1017 5.96391C33.8823 6.09893 33.7486 6.33813 33.7486 6.59579C33.7486 7.77449 33.3182 8.91259 32.5384 9.79641L29.648 13.067H28.5943V19.4111H29.5708V19.4112Z" fill="#FFD36C"/>
<path d="M29.1196 20.417H26.0677C25.866 20.417 25.7024 20.2535 25.7024 20.0517V12.2718C25.7024 12.07 25.8659 11.9065 26.0677 11.9065H29.1196C29.3214 11.9065 29.4849 12.07 29.4849 12.2718V20.0517C29.4848 20.2534 29.3213 20.417 29.1196 20.417V20.417Z" fill="#8EE6F3"/>
<path d="M22.2569 33.3786V16.9529C22.2569 14.9693 20.644 13.3613 18.6542 13.3613H5.78084C3.79118 13.3613 2.17816 14.9693 2.17816 16.9529V29.787C2.17816 31.7706 3.79108 33.3786 5.78084 33.3786H12.853V36.6819L17.1313 33.3786H22.2569Z" fill="#4ED5EA"/>
<path d="M18.6542 13.3613H13.5527C15.5423 13.3613 17.1553 14.9693 17.1553 16.9529V33.3786H22.2569V16.9529C22.2568 14.9693 20.6439 13.3613 18.6542 13.3613V13.3613Z" fill="#62A6FD"/>
<path d="M29.2258 30.7543H20.0902C18.6782 30.7543 17.5336 31.8954 17.5336 33.303V42.4107C17.5336 43.8183 18.6782 44.9594 20.0902 44.9594H25.1089V47.3037L28.1451 44.9595H29.2258C30.6378 44.9595 31.7824 43.8184 31.7824 42.4108V33.3031C31.7823 31.8955 30.6377 30.7543 29.2258 30.7543V30.7543Z" fill="#FA9084"/>
<path d="M29.2258 30.7543H25.2878C26.6997 30.7543 27.8444 31.8954 27.8444 33.303V42.4108C27.8444 43.8184 26.6997 44.9595 25.2878 44.9595H25.1089V47.3037L28.1451 44.9595H29.2258C30.6378 44.9595 31.7825 43.8184 31.7825 42.4108V33.303C31.7824 31.8955 30.6378 30.7543 29.2258 30.7543V30.7543Z" fill="#FF6CB5"/>
<path d="M24.6579 40.9515C26.8563 39.7861 27.9953 38.7945 27.9953 37.2583C27.9953 35.1393 25.3995 34.6095 24.6579 36.1988C23.8103 34.5566 21.3206 35.1394 21.3206 37.2583C21.3206 38.7945 22.4596 39.786 24.6579 40.9515Z" fill="#F7F3F1"/>
<path d="M41.2534 0H39.1897C38.2825 0 38.2825 1.40645 39.1897 1.40645H41.2534C43.3847 1.40645 45.1186 3.13414 45.1186 5.2577V21.5324C45.1186 23.6561 43.3848 25.3838 41.2534 25.3838H38.9128C38.7584 25.3838 38.6083 25.4346 38.4855 25.5284L34.1906 28.8137V26.087C34.1906 25.6986 33.8758 25.3838 33.4874 25.3838H24.9286C24.2277 25.3838 23.5541 25.1988 22.9601 24.8471V16.9529C22.9601 15.4743 22.2069 14.1679 21.0633 13.395V5.2577C21.0633 3.13414 22.7973 1.40645 24.9286 1.40645H34.7828C35.6899 1.40645 35.6899 0 34.7828 0H24.9286C22.0218 0 19.6569 2.35862 19.6569 5.2577V12.7769C19.3349 12.7 18.9994 12.6581 18.6541 12.6581H5.78079C3.4066 12.6581 1.47498 14.5847 1.47498 16.9529V18.4714C1.47498 19.3785 2.88143 19.3785 2.88143 18.4714V16.9529C2.88143 15.3603 4.18202 14.0645 5.78079 14.0645H18.6542C20.253 14.0645 21.5537 15.3603 21.5537 16.9529V25.127C21.5453 25.1891 21.5456 25.2517 21.5537 25.3133V29.7869C21.5537 29.8753 21.5483 29.9634 21.5404 30.0509H20.0901C18.4921 30.0509 17.1599 31.2043 16.8837 32.7202C16.8198 32.7443 16.7583 32.778 16.7014 32.8218L13.5561 35.2504V33.3785C13.5561 32.9901 13.2414 32.6753 12.8529 32.6753H5.78079C4.18202 32.6753 2.88143 31.3796 2.88143 29.7869V22.6908C2.88143 21.7837 1.47498 21.7837 1.47498 22.6908V29.787C1.47498 32.1552 3.4066 34.0818 5.78079 34.0818H12.1498V36.6819C12.1498 37.246 12.8347 37.5844 13.2828 37.2386L16.8304 34.4995V42.4108C16.8304 44.204 18.2928 45.6628 20.0902 45.6628H24.4057V47.3037C24.4057 47.8676 25.0906 48.2064 25.5386 47.8604L28.3849 45.6628H29.2258C31.0232 45.6628 32.4857 44.2039 32.4857 42.4108V41.1622C32.4857 40.2551 31.0792 40.2551 31.0792 41.1622V42.4108C31.0792 43.4285 30.2478 44.2563 29.2258 44.2563H28.145C27.9894 44.2563 27.8383 44.3079 27.7153 44.4029L25.8121 45.8722V44.9594C25.8121 44.5711 25.4973 44.2562 25.1088 44.2562H20.0901C19.0682 44.2562 18.2367 43.4283 18.2367 42.4107V33.303C18.2367 32.2853 19.0681 31.4575 20.0901 31.4575H29.2258C30.2477 31.4575 31.0792 32.2854 31.0792 33.303V36.7553C31.0792 37.6624 32.4857 37.6624 32.4857 36.7553V33.3031C32.4857 31.5099 31.0232 30.0511 29.2258 30.0511H22.9521C22.9574 29.9633 22.9601 26.4114 22.9601 26.4114C23.5802 26.6607 24.245 26.7903 24.9287 26.7903H32.7842V30.2371C32.7842 30.7997 33.4663 31.1385 33.9147 30.7956L39.151 26.7903H41.2535C44.1603 26.7903 46.5252 24.4317 46.5252 21.5325V5.2577C46.5251 2.35862 44.1602 0 41.2534 0V0Z" fill="black"/>
<path d="M34.8482 5.19563C33.9553 4.96769 33.0454 5.67317 33.0454 6.5958C33.0454 7.60385 32.678 8.57534 32.0114 9.33079L30.0739 11.5233C29.9485 11.3308 29.7317 11.2033 29.4848 11.2033H25.7024C25.3139 11.2033 24.9991 11.5182 24.9991 11.9066V20.417C24.9991 20.8054 25.3139 21.1202 25.7024 21.1202H29.4848C29.769 21.1202 30.0132 20.9514 30.1241 20.7089C30.8898 21.1768 31.7772 21.4298 32.6801 21.4298H39.3647C40.3861 21.4298 41.2288 20.5434 41.1809 19.5246C41.1596 19.0734 41.1828 13.015 41.1828 12.8805C41.1828 11.878 40.3672 11.0622 39.3667 11.0622L35.8906 11.0518L36.0346 10.711C36.6923 9.1533 36.584 7.34704 35.7452 5.87898C35.5494 5.53599 35.2307 5.29343 34.8482 5.19563C34.4654 5.09793 35.2307 5.29343 34.8482 5.19563C33.9553 4.96769 35.2307 5.29343 34.8482 5.19563V5.19563ZM28.7816 19.7138H26.4056V12.6098H28.7816V19.7138ZM39.3647 12.4686C39.5918 12.4686 39.7765 12.6533 39.7765 12.8804C39.7765 13.0142 39.7751 13.3773 39.7732 13.8697C39.7628 16.5881 39.7558 19.1627 39.7759 19.5906C39.7832 19.745 39.7081 19.848 39.6627 19.8956C39.5842 19.9779 39.4783 20.0232 39.3647 20.0232H32.6801C31.8833 20.0232 31.1034 19.7471 30.484 19.2457L30.188 19.0061V13.518L33.0657 10.2617C33.9596 9.24865 34.4518 7.94675 34.4518 6.59571C34.4518 6.55595 34.5061 6.54564 34.5241 6.57658C35.1469 7.66639 35.2272 9.00731 34.7389 10.1637L34.1839 11.4782C34.0923 11.695 34.1154 11.9432 34.2451 12.1396C34.3749 12.3359 34.5943 12.4542 34.8296 12.455L39.3647 12.4686Z" fill="black"/>
<path d="M7.49644 24.4252C7.10798 24.4252 6.79321 24.7401 6.79321 25.1284C6.79321 25.5168 7.10798 25.8317 7.49644 25.8317H9.56936L9.18212 28.1738C9.11874 28.5569 9.37809 28.9189 9.76121 28.9823C9.80012 28.9888 9.83865 28.9919 9.87672 28.9919C10.2146 28.9919 10.5127 28.7476 10.5697 28.4032L10.9949 25.8318H12.6913L12.3041 28.1739C12.2407 28.557 12.5 28.919 12.8832 28.9824C12.9221 28.9889 12.9606 28.992 12.9987 28.992C13.3366 28.992 13.6347 28.7477 13.6917 28.4033L14.1168 25.8319H16.9384C17.3269 25.8319 17.6417 25.517 17.6417 25.1286C17.6417 24.7403 17.3269 24.4254 16.9384 24.4254H14.3493L14.633 22.7099H16.9384C17.3269 22.7099 17.6417 22.395 17.6417 22.0067C17.6417 21.6183 17.3269 21.3034 16.9384 21.3034H14.8655L15.2527 18.9613C15.3161 18.5782 15.0568 18.2162 14.6737 18.1528C14.2901 18.0892 13.9285 18.3488 13.8651 18.7319L13.44 21.3034H11.7436L12.1308 18.9612C12.1942 18.5781 11.9348 18.2161 11.5517 18.1527C11.1677 18.0891 10.8067 18.3487 10.7432 18.7318L10.3181 21.3033H7.49644C7.10798 21.3033 6.79321 21.6181 6.79321 22.0065C6.79321 22.3949 7.10798 22.7097 7.49644 22.7097H10.0855L9.8019 24.4252H7.49644ZM11.5111 22.7097H13.2076L12.9239 24.4252H11.2275L11.5111 22.7097Z" fill="black"/>
<path d="M24.6495 35.0859C24.0817 34.6184 23.3262 34.434 22.5684 34.6182C21.5973 34.8541 20.6174 35.7619 20.6174 37.2583C20.6174 38.1896 20.9573 38.998 21.6565 39.7298C22.2276 40.3275 23.0518 40.8959 24.3286 41.5729C24.4317 41.6275 24.5449 41.6548 24.658 41.6548C24.7712 41.6548 24.8844 41.6275 24.9874 41.5729C27.2151 40.3919 28.6986 39.2063 28.6986 37.2583C28.6986 35.7537 27.6839 34.8552 26.6782 34.6321C25.9226 34.4645 25.1901 34.6424 24.6495 35.0859V35.0859ZM27.292 37.2583C27.292 38.309 26.5951 39.086 24.6579 40.1524C22.7208 39.0859 22.0237 38.3089 22.0237 37.2583C22.0237 36.4765 22.4764 36.0879 22.9001 35.9849C22.9782 35.966 23.0619 35.9553 23.1479 35.9553C23.4666 35.9553 23.817 36.1025 24.033 36.5214C24.1561 36.7597 24.405 36.9075 24.6719 36.9019C24.94 36.8966 25.1818 36.7393 25.2951 36.4962C25.5227 36.0085 26.0013 35.9227 26.3733 36.0053C26.8176 36.1036 27.292 36.4846 27.292 37.2583V37.2583Z" fill="black"/>
</g>
<defs>
<clipPath id="clip0">
<rect width="48" height="48" fill="white"/>
</clipPath>
</defs>
</svg>
